name C:\Users\u0101727\Documents\MyRepositories\upper-imu-dc\Results\main_mocap_tracking\Case_4\kinematics.mot
datacolumns 15
datarows 34
range 0.50000000 0.83000000
endheader 
time	ground_thorax_rot_x	ground_thorax_rot_y	ground_thorax_rot_z	clav_prot	clav_elev	scapula_abduction	scapula_elevation	scapula_upward_rot	scapula_winging	plane_elv	shoulder_elv	axial_rot	elbow_flexion	pro_sup	
          0.50000000	          1.93213695	         -4.30288630	         -6.86915365	        -23.98913874	         -6.29669833	        -11.49609255	         -6.87287766	         17.91181393	          4.98857301	        -26.24051583	         11.24141010	         42.81976115	          0.54673510	         34.27378246	
          0.51000000	          2.01448507	         -4.59423825	         -7.17091906	        -24.13828354	         -6.28457903	        -11.75460777	         -6.87288237	         17.91191965	          4.98438448	        -25.98655092	         11.66148216	         42.45312829	          0.26484980	         34.30102821	
          0.52000000	          2.04720640	         -4.78861491	         -7.52209724	        -24.23711182	         -6.27652293	        -11.92586569	         -6.87288234	         17.91192097	          4.98123522	        -25.63541374	         12.04006514	         42.05172987	          0.09728198	         34.31731571	
          0.53000000	          2.04468626	         -4.91496695	         -7.89891318	        -24.29918191	         -6.27145288	        -12.03339527	         -6.87288195	         17.91191942	          4.97909917	        -25.19362635	         12.37741158	         41.58386625	          0.00829692	         34.32615916	
          0.54000000	          2.01753361	         -4.99470412	         -8.28370471	        -24.33572821	         -6.26846392	        -12.09669600	         -6.87288159	         17.91191875	          4.97778411	        -24.66311588	         12.67421659	         41.02033888	         -0.02764300	         34.32983794	
          0.55000000	          1.97364153	         -5.04324662	         -8.66321252	        -24.35347706	         -6.26701129	        -12.12743504	         -6.87288136	         17.91191855	          4.97713003	        -24.04908101	         12.93161977	         40.35035070	         -0.03434267	         34.33097329	
          0.56000000	          1.91936338	         -5.07120708	         -9.02754994	        -24.35794438	         -6.26664561	        -12.13517165	         -6.87288132	         17.91191844	          4.97696376	        -23.35687480	         13.15317449	         39.57657694	         -0.02944127	         34.33142340	
          0.57000000	          1.86017827	         -5.08570578	         -9.36951579	        -24.35301605	         -6.26704909	        -12.12663680	         -6.87288138	         17.91191825	          4.97714700	        -22.59326863	         13.34616931	         38.71646587	         -0.02266862	         34.33206663	
          0.58000000	          1.80090004	         -5.09150423	         -9.68409690	        -24.34032766	         -6.26808745	        -12.10466228	         -6.87288141	         17.91191800	          4.97761527	        -21.76794984	         13.52121477	         37.79994558	         -0.01656322	         34.33296844	
          0.59000000	          1.74555319	         -5.09176636	         -9.96803362	        -24.31970410	         -6.26977428	        -12.06894284	         -6.87288130	         17.91191786	          4.97836541	        -20.89473222	         13.69008077	         36.86370874	         -0.00862328	         34.33360824	
          0.60000000	          1.69705970	         -5.08845396	        -10.21939735	        -24.29067835	         -6.27214683	        -12.01866625	         -6.87288110	         17.91191794	          4.97939823	        -19.99153847	         13.86224988	         35.94397599	          0.00552265	         34.33320700	
          0.61000000	          1.65687838	         -5.08251775	        -10.43721022	        -24.25444905	         -6.27510582	        -11.95590444	         -6.87288082	         17.91191815	          4.98064987	        -19.07842460	         14.04115734	         35.06953240	          0.02876852	         34.33110227	
          0.62000000	          1.62473336	         -5.07403325	        -10.62114154	        -24.21552860	         -6.27828171	        -11.88847135	         -6.87288052	         17.91191815	          4.98194813	        -18.17360406	         14.22113662	         34.25685990	          0.05961115	         34.32712589	
          0.63000000	          1.59861375	         -5.06227594	        -10.77125875	        -24.18267738	         -6.28095998	        -11.83154651	         -6.87288024	         17.91191752	          4.98300667	        -17.28850244	         14.38613239	         33.50854927	          0.09000866	         34.32195580	
          0.64000000	          1.57529224	         -5.04564074	        -10.88778626	        -24.16880544	         -6.28209014	        -11.80750738	         -6.87288004	         17.91191661	          4.98344345	        -16.42412106	         14.51162716	         32.81515627	          0.10467721	         34.31738361	
          0.65000000	          1.55155547	         -5.02152010	        -10.97094341	        -24.18905102	         -6.28044023	        -11.84259133	         -6.87288016	         17.91191771	          4.98280380	        -15.57168870	         14.57159466	         32.15996944	          0.08401546	         34.31623497	
          0.66000000	          1.52583509	         -4.98710640	        -11.02133855	        -24.25548237	         -6.27502105	        -11.95769315	         -6.87288062	         17.91192127	          4.98061377	        -14.71669711	         14.55084286	         31.52490611	          0.01439418	         34.32141419	
          0.67000000	          1.49874859	         -4.94301442	        -11.04170803	        -24.36660783	         -6.26593591	        -12.15017382	         -6.87288093	         17.91192049	          4.97663860	        -13.83578953	         14.45692762	         30.89012816	         -0.09722948	         34.33395793	
          0.68000000	          1.47160701	         -4.89772361	        -11.03881671	        -24.49819532	         -6.25514700	        -12.37799422	         -6.87288196	         17.91191572	          4.97142607	        -12.88090760	         14.32034293	         30.21458295	         -0.22423165	         34.35088827	
          0.69000000	          1.44628678	         -4.86375558	        -11.02140242	        -24.61272213	         -6.24572937	        -12.57618217	         -6.87288329	         17.91191373	          4.96644194	        -11.78848449	         14.18483770	         29.43986658	         -0.33856421	         34.36677742	
          0.70000000	          1.42680934	         -4.84824721	        -10.99562724	        -24.67877591	         -6.24028432	        -12.69044665	         -6.87288297	         17.91191483	          4.96337687	        -10.53425184	         14.09913919	         28.52845941	         -0.41787127	         34.37759936	
          0.71000000	          1.41809624	         -4.85030528	        -10.96381287	        -24.68524634	         -6.23974913	        -12.70163731	         -6.87288203	         17.91191677	          4.96306811	         -9.14231829	         14.10177998	         27.46687966	         -0.44622926	         34.38150807	
          0.72000000	          1.42340226	         -4.86512074	        -10.92620577	        -24.63866058	         -6.24358931	        -12.62105420	         -6.87288126	         17.91191824	          4.96525251	         -7.65427198	         14.21043762	         26.25340393	         -0.41719726	         34.37822026	
          0.73000000	          1.44323184	         -4.88770655	        -10.88253197	        -24.55372603	         -6.25058106	        -12.47409905	         -6.87288084	         17.91191886	          4.96905904	         -6.10529291	         14.42185613	         24.89596352	         -0.33654181	         34.36883339	
          0.74000000	          1.47561381	         -4.91442740	        -10.83262710	        -24.44561893	         -6.25946027	        -12.28698073	         -6.87288071	         17.91191884	          4.97357355	         -4.51856226	         14.71814361	         23.41127307	         -0.22033183	         34.35545186	
          0.75000000	          1.51697618	         -4.94322888	        -10.77659104	        -24.32565152	         -6.26928669	        -12.07924365	         -6.87288071	         17.91191858	          4.97814948	         -2.90877958	         15.07462566	         21.82376746	         -0.08982892	         34.34059466	
          0.76000000	          1.56312360	         -4.97334665	        -10.71479315	        -24.19983514	         -6.27956149	        -11.86127812	         -6.87288073	         17.91191837	          4.98245796	         -1.28674165	         15.46647120	         20.16448326	          0.03381957	         34.32664648	
          0.77000000	          1.61003095	         -5.00488347	        -10.64785386	        -24.06948247	         -6.29017347	        -11.63534759	         -6.87288073	         17.91191832	          4.98639200	          0.33826063	         15.87290285	         18.46930727	          0.13346902	         34.31548597	
          0.78000000	          1.65435470	         -5.03842024	        -10.57663442	        -23.93293044	         -6.30125373	        -11.39855857	         -6.87288068	         17.91191841	          4.98993487	          1.95850610	         16.27904734	         16.77621360	          0.19812975	         34.30829259	
          0.79000000	          1.69369480	         -5.07468910	        -10.50222602	        -23.78780036	         -6.31298914	        -11.14677014	         -6.87288059	         17.91191851	          4.99305168	          3.56971038	         16.67605315	         15.12161489	          0.22379351	         34.30547584	
          0.80000000	          1.72667863	         -5.11428466	        -10.42591577	        -23.63333751	         -6.32543284	        -10.87865244	         -6.87288046	         17.91191847	          4.99563474	          5.17350888	         17.06019074	         13.53645369	          0.21340847	         34.30667501	
          0.81000000	          1.75292376	         -5.15739899	        -10.34910799	        -23.47223882	         -6.33836008	        -10.59886882	         -6.87288029	         17.91191824	          4.99752227	          6.77889129	         17.43155200	         12.04299371	          0.17616384	         34.31082781	
          0.82000000	          1.77291047	         -5.20360840	        -10.27319487	        -23.31122747	         -6.35122809	        -10.31909051	         -6.87288005	         17.91191793	          4.99858602	          8.40082992	         17.79282746	         10.65323047	          0.12593498	         34.31634264	
          0.83000000	          1.78777384	         -5.25178435	        -10.19940171	        -23.15989017	         -6.36327519	        -10.05599226	         -6.87287975	         17.91191776	          4.99883602	         10.05549661	         18.14841516	          9.36918576	          0.07873924	         34.32140364	
